<?xml version="1.0" standalone="no"?><!DOCTYPE svg PUBLIC "-//W3C//DTD SVG 1.1//EN" "http://www.w3.org/Graphics/SVG/1.1/DTD/svg11.dtd"><svg t="1682405757276" class="icon" viewBox="0 0 1024 1024" version="1.1" xmlns="http://www.w3.org/2000/svg" p-id="4937" xmlns:xlink="http://www.w3.org/1999/xlink" width="200" height="200"><path d="M968.6 475.1c-0.8-10.9-2.1-21.8-3.9-33.5-0.6-4.3-1.3-8.6-2.2-12.9-1-5.8-2.3-11.6-3.5-17.1-4.4-19.4-10.1-38.8-17.1-57.7-16.2-44.1-39.2-85.3-68.2-122.6-28.7-36.9-62.7-69.1-101-95.8-24.6-17-50.8-31.7-77.9-43.4C637.3 66.8 575.7 54 512 54c-95.6 0-187.2 29.2-264.9 84.3-37.4 26.6-70.6 58.5-98.5 94.9C120.3 270 97.9 310.5 82 353.9c-7 19.2-12.7 38.6-17 57.6-1.2 5.4-2.4 11.2-3.5 17-0.8 4.1-1.5 8.1-2.2 13-1.5 10.1-2.8 20.4-3.7 31.6-0.1 0.8-0.2 1.5-0.2 2.1-0.3 3.9-0.6 7.9-0.8 11.9-0.5 7.8-0.7 16-0.7 24.9 0 6.3 0.2 13.2 0.5 21l0.3 6.1c0.1 2.5 0.2 4.6 0.4 6.8 0.1 1.3 0.2 2.6 0.3 3.7 1.1 13.9 2.9 28.1 5.4 42.1 2.4 13.6 5.4 27.1 8.9 40.1v0.2l0.3 0.9c1.3 4.6 2.7 9.3 4 13.8l0.1 0.2c2 6.5 4.2 13.1 7.3 21.7l1.2 3c0.4 0.9 0.7 1.9 1 2.8 0 0.1 0.1 0.3 0.2 0.4l0.6 1.5c0.3 0.7 0.5 1.4 0.8 2.1 0.2 0.4 0.3 0.8 0.5 1.2 0.3 0.7 0.6 1.5 0.9 2.3 1.2 3 2.3 5.7 3.5 8.4 0.5 1.1 1 2.2 1.4 3.3 1.2 2.7 2.4 5.6 3.7 8.4 1.5 3.3 3 6.5 4.5 9.6 6.4 13.3 13.7 26.6 21.7 39.5 2.4 4 5.1 8.2 8.2 12.8 0.2 0.3 0.3 0.5 0.5 0.7 0.1 0.2 0.2 0.3 0.3 0.5 0.1 0.2 0.3 0.4 0.4 0.6 1 1.6 2 3 3 4.5l0.6 0.9c0.3 0.5 0.6 1.1 1 1.5l0.9 1.1c0.4 0.5 0.7 1 1.1 1.5 0.7 0.9 1.4 1.9 2 2.9 2.8 3.9 5.9 8.2 10 13.5 7 9.1 13.9 17.3 20.8 25.1l0.6 0.7c0.1 0.2 0.3 0.3 0.4 0.5 4.6 5.1 9.3 10.1 14.1 15l0.1 0.1 3.2 3.1 3.1 3.1c2.2 2.2 4.5 4.4 6.9 6.7 39.5 37 84.5 66.3 133.1 87.2C387.9 957.3 449.2 970 512 970c73.6 0 143.9-16.9 208.8-50.3 18.6-9.4 36.9-20.5 54.4-32.8 0 0 0.1 0 0.1-0.1 6.4-4.5 12.7-9.2 18.8-14l2.7-2.1c18.4-14.6 35.6-30.7 51.5-48 1.5-1.6 2.9-3.2 4.4-4.8 2.6-2.9 5.2-5.8 7.8-8.9 4.6-5.4 8.7-10.3 12.3-14.9 0.1-0.2 0.3-0.4 0.4-0.6 0.5-0.7 1.1-1.4 1.6-2 3.4-4.4 6.6-8.8 9.5-12.8 0.9-1.3 1.8-2.5 2.6-3.7 0.6-0.8 1.2-1.6 1.9-2.6 0 0 0-0.1 0.1-0.1l0.6-0.9c1.3-1.9 2.7-3.9 4.1-6 0.4-0.6 0.8-1.1 1-1.4 11.1-16.7 21.2-34.4 29.9-52.5 1.7-3.6 3.5-7.4 5.6-12.1 1.9-4.2 3.9-8.8 6.2-14.4 0.1-0.1 0.1-0.3 0.2-0.4 0.3-0.8 0.6-1.7 1-2.5l1.2-3c1.3-3.4 2.6-6.9 3.9-10.5 4.5-12.3 8.4-24.5 11.5-36.2 0.1-0.3 0.2-0.6 0.2-1v-0.2c1.6-6 3.2-12.2 4.5-18.5 1.6-6.9 2.8-13 3.8-18.6 0.1-0.3 0.1-0.6 0.2-1 2.5-13.9 4.4-28.5 5.6-43.4 0.1-1.2 0.2-2.5 0.3-3.9 0.3-4 0.5-8.1 0.7-12.1v-0.6c0.3-7.9 0.5-14.5 0.5-20.9l0.1-6c-0.1-10.1-0.6-20.3-1.4-31.1zM828.3 814.7c-1.7 1.8-3.5 3.6-5.3 5.4-0.7 0.8-1.5 1.5-2.2 2.2-1.7 1.7-3.4 3.4-5.1 5-1.2 1.1-2.4 2.3-3.6 3.4-0.5 0.5-1 0.9-1.5 1.4-2.5 2.4-5.1 4.7-7.7 7.1-0.1 0.1-0.2 0.1-0.2 0.2-10.3 9.2-21.2 17.9-32.4 26.2-2.2 1.6-4.4 3.2-6.6 4.7-16.7 12-34.2 22.6-52 31.6C649.6 933.8 582.4 950 512 950c-58.5 0-115.6-11.6-168.5-33.6-48-20-92.5-48.6-131.3-85.1-2.4-2.3-4.5-4.3-6.5-6.3l-6.3-6.3c-1.6-1.6-3.2-3.3-4.8-5 10.9-5 25.5-9.2 46-9.2 36.2 0 54.4 12.7 72 25.1l0.5 0.3c17 11.9 31.7 22.2 63 22.2S422 841.8 439 830l0.2-0.2c17.7-12.5 36.1-25.3 72.5-25.3 36.3 0 54.5 12.7 72.1 25.1l0.5 0.3c17 11.9 31.7 22.2 63 22.2s45.9-10.3 62.9-22.1l0.2-0.2c17.7-12.4 36.1-25.3 72.5-25.3 20.6 0 35.3 4.3 46.3 9.3l-0.9 0.9z m37.5-44.6c-0.4 0.5-0.7 1-1.1 1.5-0.2 0.2-0.3 0.4-0.5 0.6-0.4 0.6-0.8 1.1-1.2 1.7-0.1 0.2-0.3 0.4-0.4 0.6-0.4 0.6-0.9 1.2-1.3 1.8-0.1 0.2-0.3 0.3-0.4 0.5-0.6 0.8-1.2 1.5-1.8 2.3-2.4 3.2-5.1 6.6-8 10.1-0.2 0.2-0.3 0.4-0.5 0.6-0.4 0.5-0.9 1-1.3 1.6-1.2 1.5-2.5 2.9-3.8 4.5-0.7 0.8-1.5 1.7-2.3 2.6-13.6-7.1-32.4-13.9-60.2-13.9-42.7 0-65.6 16.1-84 29l-0.2 0.1c-15.9 11.1-26.5 18.5-51.5 18.5s-35.6-7.4-51.6-18.6l-0.5-0.3c-18.2-12.8-41-28.7-83.6-28.7-42.7 0-65.6 16.1-84 29l-0.2 0.1c-15.9 11.1-26.5 18.5-51.5 18.5s-35.6-7.4-51.6-18.6l-0.5-0.3c-18.2-12.8-41-28.7-83.5-28.7-27.5 0-46.2 6.6-59.6 13.6l-22.9-29c3.5-2.3 6.9-4.6 10-6.8l0.1-0.1c17.7-12.5 36.1-25.3 72.5-25.3 36.5 0 54.7 12.9 72.4 25.3l0.1 0.1c17 11.9 31.8 22.2 63 22.2 31.3 0 45.9-10.3 62.9-22.1l0.2-0.2c17.7-12.5 36.1-25.3 72.5-25.3 36.6 0 54.8 12.9 72.5 25.3l0.1 0.1c17 11.9 31.8 22.2 63 22.2s45.9-10.3 62.9-22.1l0.2-0.2c17.7-12.5 36.1-25.3 72.5-25.3 36.6 0 54.8 12.9 72.5 25.4 3.5 2.5 7.1 5 10.7 7.3 0.1 0.1 0 0.2-0.1 0.4zM949.5 532v0.6c-0.2 3.8-0.4 7.8-0.7 11.6-0.1 1.3-0.2 2.6-0.3 3.7-1.2 14.3-3 28.2-5.3 41.3-0.1 0.3-0.1 0.6-0.2 1-1 5.4-2.2 11.3-3.7 18-1.4 6.1-3 12.3-4.5 18.4-0.1 0.3-0.1 0.6-0.2 0.9v0.1c-2.9 11-6.6 22.4-10.8 33.9-1.3 3.5-2.6 6.9-3.9 10.3v0.1c-0.3 0.8-0.6 1.7-1 2.5-0.4 1-0.8 1.9-1.1 2.9-2.2 5.4-4.1 9.8-5.9 13.8-2 4.5-3.7 8.1-5.4 11.6-8.4 17.4-18 34.3-28.6 50.2-0.1 0.1-0.1 0.2-0.2 0.3l-0.1 0.1c-3.6-2.2-7.1-4.7-10.6-7.2-18.3-12.9-41.1-29-84.1-29-42.7 0-65.6 16.1-84 29l-0.2 0.1c-15.9 11.1-26.5 18.5-51.4 18.5s-35.6-7.4-51.6-18.6c-18.3-12.9-41.1-29-84-29-42.7 0-65.6 16.1-84 29l-0.2 0.1c-15.9 11.1-26.5 18.5-51.4 18.5s-35.6-7.4-51.6-18.6c-18.3-12.9-41.1-29-83.9-29-42.7 0-65.6 16.1-84 29l-0.1 0.1c-3.8 2.7-7.1 5-10.3 7-3-4.4-5.5-8.5-7.9-12.4-7.6-12.4-14.6-25.1-20.7-37.8-1.5-3.1-2.9-6-4.2-9 0-0.1-0.1-0.2-0.1-0.3-1.2-2.5-2.3-5.1-3.5-7.9-0.5-1.2-1-2.3-1.5-3.4-1.1-2.6-2.1-5.1-3.3-8-0.1-0.2-0.1-0.3-0.2-0.5-0.2-0.5-0.4-0.9-0.6-1.4-0.2-0.6-0.5-1.2-0.7-1.8l-0.6-1.5c-0.2-0.6-0.5-1.3-0.7-1.9-0.3-0.9-0.7-1.9-1.1-2.8-0.4-0.9-0.7-1.9-1-2.7-2.9-8.2-5.1-14.6-6.9-20.7v-0.1c-1.4-4.5-2.8-9.2-4-13.8v-0.1c-0.1-0.3-0.1-0.6-0.3-0.9-3.3-12.3-6.2-25-8.4-37.9-2.4-13.4-4.1-26.9-5.2-40.3-0.1-1.2-0.2-2.4-0.3-3.7v-0.2c-0.2-1.8-0.3-3.7-0.4-6l-0.3-6c-0.3-7.5-0.5-14-0.5-20.1 0-8.5 0.2-16.3 0.7-23.7v-0.1c0.2-3.9 0.5-7.9 0.8-11.8v-0.2c0-0.2 0.1-0.4 0.1-0.7 0.9-11 2.1-21 3.6-30.7 0.8-4.7 1.4-8.6 2.2-12.4v-0.1c1-5.5 2.2-11.1 3.3-16.3 4-18.1 9.5-36.7 16.2-55 15.2-41.4 36.7-80.2 63.7-115.4 26.8-34.8 58.5-65.3 94.3-90.7C333 101.9 420.6 74 512 74c61 0 119.8 12.2 174.9 36.4 25.9 11.3 51 25.3 74.5 41.5 36.7 25.5 69.2 56.3 96.6 91.6 27.7 35.6 49.6 75.1 65.2 117.2 6.6 18.1 12.1 36.7 16.3 55.2 1.1 5.2 2.3 10.8 3.3 16.3v0.1c0.8 4 1.4 8.1 2 12.1v0.1c1.7 11.1 3 21.5 3.7 31.9 0.8 10.4 1.3 20.2 1.4 29.8v5.8h0.1c0 6.1-0.2 12.5-0.5 20z" p-id="4938"></path><path d="M772.1 319.9l-92.8-53.3c-1.5-0.9-3.2-1.3-5-1.3h-10.7c-0.7-0.1-1.4-0.1-2.2-0.1H527.1V251c18.9-6.9 32-25.1 32-45.9 0-27-21.9-48.9-48.9-48.9s-48.9 21.9-48.9 48.9c0 5.5 4.5 10 10 10s10-4.5 10-10c0-15.9 13-28.9 28.9-28.9 15.9 0 28.9 13 28.9 28.9 0 14-10 26-23.7 28.4-4.8 0.9-8.2 5-8.2 9.8v21.9H379.3c-0.7 0-1.5 0-2.2 0.1h-27.5c-1.7 0-3.5 0.5-5 1.3l-92.9 53.3c-3.5 2-5.5 6-4.9 10l13.8 100 2.7 19.3a10 10 0 0 0 4.4 7c2.4 1.6 5.4 2 8.2 1.3 24.3-6.7 52.6-13.6 66.3-15.9v242c0 5.5 4.5 10 10 10h319.5c5.5 0 10-4.5 10-10V444l66.9 13.7c2.7 0.6 5.5 0 7.8-1.6s3.7-4.1 4.1-6.8L777 330c0.6-4.1-1.4-8-4.9-10.1z m-149-34.7c-2 5.9-4.5 11.6-7.4 17.1-20 37-58.3 60-100.1 60s-80.1-23-100-60.1c-2.9-5.4-5.4-11.1-7.4-17h214.9zM742.2 436l-68.5-14c-2.9-0.6-6 0.2-8.3 2.1-2.3 1.9-3.7 4.7-3.7 7.7v241.8H362.2V431.8c0-1.6-0.4-4.7-3.1-7.5l-0.2-0.2c-4.4-4.2-10.6-3.9-22.8-1.8-6.9 1.2-16.2 3.2-27.5 6-10 2.4-19.9 5-27.1 6.9l-1.1-8.1-12.9-93.3 84.7-48.6h35c2.6 9.2 6.3 18.1 10.8 26.4 23.3 43.5 68.4 70.6 117.6 70.6 49.2 0 94.3-27 117.7-70.5 4.5-8.3 8.1-17.2 10.8-26.5h27.5l84.6 48.6-14 102.2z" p-id="4939"></path><path d="M616.9 446.5c-3.5-9.6-12.7-16.5-23.5-16.5-13.8 0-25 11.2-25 25v30c0 5.5 4.5 10 10 10h30c13.8 0 25-11.2 25-25 0-10.8-6.9-20-16.5-23.5z m-8.5 28.5h-20v-20c0-2.8 2.2-5 5-5s5 2.2 5 5c0 5.5 4.5 10 10 10 2.8 0 5 2.2 5 5s-2.2 5-5 5z" p-id="4940"></path></svg>